<?xml version="1.0" encoding="UTF-8"?>
<svg viewBox="0 0 744.09 1052.4" xmlns="http://www.w3.org/2000/svg" xmlns:xlink="http://www.w3.org/1999/xlink">
 <defs>
  <linearGradient id="a" x1="2.9e-5" x2=".99985" y1=".5" y2=".5" xlink:href="#v"/>
  <linearGradient id="z" x1=".000161" x2="1.0001" y1=".5" y2=".5" xlink:href="#v"/>
  <linearGradient id="y" x1=".000311" x2="1.0003" y1=".5" y2=".5" xlink:href="#v"/>
  <linearGradient id="x" x1=".000394" x2=".99997" y1=".5" y2=".5" xlink:href="#v"/>
  <linearGradient id="ac" x1=".61073" x2=".89088" y1=".49998" y2=".49998" spreadMethod="reflect">
   <stop stop-color="#010000" offset="0"/>
   <stop stop-color="#010000" stop-opacity="0" offset="1"/>
  </linearGradient>
  <linearGradient id="ae" x1=".67972" x2=".86471" y1=".21215" y2=".67422" spreadMethod="reflect">
   <stop stop-color="#1b0d0b" offset="0"/>
   <stop stop-color="#544444" offset=".5"/>
   <stop stop-color="#e5e8ed" offset="1"/>
  </linearGradient>
  <linearGradient id="af" x1=".50003" x2=".50003" y1=".23181" y2="1.0071" xlink:href="#aa" spreadMethod="reflect"/>
  <linearGradient id="ag" x1=".5" x2=".5" y1=".23201" y2="1.0074" xlink:href="#aa" spreadMethod="reflect"/>
  <linearGradient id="ah" x1=".50001" x2=".50001" y1=".23198" y2="1.0073" xlink:href="#aa" spreadMethod="reflect"/>
  <linearGradient id="ad" x1=".38062" x2=".60122" y1=".65876" y2="-.67408">
   <stop stop-color="#2f322a" offset="0"/>
   <stop stop-color="#717466" offset="1"/>
  </linearGradient>
  <linearGradient id="ab">
   <stop stop-color="#0a0700" offset="0"/>
   <stop stop-color="#6c6661" offset="1"/>
  </linearGradient>
  <linearGradient id="v">
   <stop stop-color="#515a5d" offset="0"/>
   <stop stop-color="#515a5d" stop-opacity="0" offset="1"/>
  </linearGradient>
  <linearGradient id="w">
   <stop stop-color="#615d58" offset="0"/>
   <stop stop-color="#615d58" stop-opacity="0" offset="1"/>
  </linearGradient>
  <linearGradient id="aa">
   <stop stop-color="#fafdf2" offset="0"/>
   <stop stop-color="#59544f" stop-opacity=".835" offset="1"/>
  </linearGradient>
  <radialGradient id="ai" cx="-355.08" cy="1318.5" r="73.78" gradientTransform="matrix(1.4089 .15124 -.08826 .82216 -198.21 188.1)" gradientUnits="userSpaceOnUse" xlink:href="#ab"/>
  <radialGradient id="al" cx="-1311.4" cy="1158" r="186.03" gradientTransform="matrix(3.4334 -.18431 .18419 3.431 3560.8 -2952.5)" gradientUnits="userSpaceOnUse">
   <stop stop-color="#fff" offset="0"/>
   <stop stop-color="#eff0ef" offset="1"/>
  </radialGradient>
  <radialGradient id="aj" cx="-138.37" cy="892.23" r="6.5919" gradientTransform="matrix(.62156 -9.85e-6 4.5881e-6 .41995 -329.78 526.94)" gradientUnits="userSpaceOnUse" xlink:href="#w"/>
  <radialGradient id="ao" cx="-138.37" cy="892.23" r="6.5919" gradientTransform="matrix(.62156 -9.85e-6 4.5881e-6 .41995 235.53 478.78)" gradientUnits="userSpaceOnUse" xlink:href="#w"/>
  <radialGradient id="am" cx="-355.08" cy="1318.5" r="73.78" gradientTransform="matrix(1.4089 .15124 -.08826 .82216 938.33 309.14)" gradientUnits="userSpaceOnUse" xlink:href="#ab"/>
  <radialGradient id="an" cx="-138.37" cy="892.23" r="6.5919" gradientTransform="matrix(.62156 -9.85e-6 4.5881e-6 .41995 357.43 455.63)" gradientUnits="userSpaceOnUse" xlink:href="#w"/>
  <radialGradient id="ak" cx="-138.37" cy="892.23" r="6.5919" gradientTransform="matrix(.62156 -9.85e-6 4.5881e-6 .41995 -451.69 550.1)" gradientUnits="userSpaceOnUse" xlink:href="#w"/>
 </defs>
 <g transform="matrix(.64896 0 0 .60706 -51.845 -328.06)">
  <g transform="matrix(.67937 0 0 .60125 -787.58 364.84)">
   <g transform="matrix(.5104 0 0 .58748 1142.8 294.04)" stroke="#393031" stroke-opacity=".683" stroke-width=".629">
    <path d="m1395.4 831.91c-94.435 0.74854-155.55 13.273-186.28 41.125-30.734 27.852-2.375 90.531-2.375 90.531h389.88s30.097-45.714 0-82.625c-31.906-39.13-97.671-49.031-194.94-49.031-2.1018 0-4.1956-0.016541-6.2812 0z" fill="url(#ad)"/>
    <path d="m1592.9 965.88a191.15 29.885 0 1 1 -6.1e-4 -0.082886" fill="#0f0c0f"/>
   </g>
   <g transform="matrix(1.3219 0 0 .54643 1446.9 541.97)">
    <rect transform="matrix(.77768 .62865 -.54106 .84098 0 0)" x="700.44" y="427.09" width="4.4239" height="182.77" rx="1.6789" ry="1.6789" fill="url(#x)" opacity=".411"/>
    <rect x="310.57" y="575.18" width="9.3303" height="371.88" rx="3.416" ry="3.416" fill="url(#a)" opacity=".411"/>
    <rect transform="matrix(-.67338 .7393 .4281 .90373 0 0)" x="64.454" y="831.94" width="3.7618" height="170.08" rx="1.5623" ry="1.5623" fill="url(#y)" opacity=".411"/>
    <rect transform="matrix(-.9252 .37948 .22682 .97394 0 0)" x="-129.26" y="871.09" width="6.8586" height="137.39" rx="1.3122" ry="1.3122" fill="url(#z)" opacity=".411"/>
    <rect x="310.57" y="575.18" width="9.3303" height="371.88" rx="3.416" ry="3.416" fill="url(#a)" opacity=".411"/>
    <rect x="308.15" y="799.14" width="12.686" height="8.258" rx="1.8707" ry="1.8707" fill="#d1d1cf"/>
    <g fill="#29342c">
     <rect x="305.71" y="930.22" width="18.571" height="19.643" rx="5.4421" ry="5.4421"/>
     <rect transform="matrix(.93801 -.3466 .3342 .9425 0 0)" x="37.815" y="1019.4" width="10.478" height="13.642" rx="3.7795" ry="3.7795"/>
     <rect transform="matrix(.98869 -.14999 .13694 .99058 0 0)" x="207.66" y="964.56" width="10.478" height="13.642" rx="3.7795" ry="3.7795"/>
     <rect transform="matrix(-.85635 -.5164 -.50507 .86308 0 0)" x="-675.23" y="692.86" width="10.478" height="13.642" rx="3.7795" ry="3.7795"/>
    </g>
   </g>
  </g>
  <g fill="#fff">
   <g transform="matrix(1 0 0 .54643 -490.1 610.49)">
    <rect transform="matrix(.77768 .62865 -.54106 .84098 0 0)" x="1177.6" y="-128.68" width="4.4239" height="182.77" rx="1.6789" ry="1.6789" opacity=".411"/>
    <rect x="982.35" y="407.75" width="9.3303" height="371.88" rx="3.416" ry="3.416" opacity=".411"/>
    <rect transform="matrix(-.67338 .7393 .4281 .90373 0 0)" x="-669.34" y="1247" width="3.7618" height="170.08" rx="1.5623" ry="1.5623" opacity=".411"/>
    <rect transform="matrix(-.9252 .37948 .22682 .97394 0 0)" x="-830.52" y="972.41" width="6.8586" height="137.39" rx="1.3122" ry="1.3122" opacity=".411"/>
    <rect x="982.35" y="407.75" width="9.3303" height="371.88" rx="3.416" ry="3.416" opacity=".411"/>
    <rect x="979.93" y="631.71" width="12.686" height="8.258" rx="1.8707" ry="1.8707"/>
    <rect x="977.5" y="762.79" width="18.571" height="19.643" rx="5.4421" ry="5.4421"/>
    <rect transform="matrix(.93801 -.3466 .3342 .9425 0 0)" x="726.99" y="1095.2" width="10.478" height="13.642" rx="3.7795" ry="3.7795"/>
    <rect transform="matrix(.98869 -.14999 .13694 .99058 0 0)" x="896.1" y="899.78" width="10.478" height="13.642" rx="3.7795" ry="3.7795"/>
    <rect transform="matrix(-.85635 -.5164 -.50507 .86308 0 0)" x="-1170.5" y="202.53" width="10.478" height="13.642" rx="3.7795" ry="3.7795"/>
   </g>
   <g transform="matrix(.97999 -.19904 .19904 .97999 -113.05 -396.27)">
    <path d="m341.09 1312.8c-21.526 0.57507-43.645 0.32715-64.467 6.0651-3.9311 0.46619-7.1739 5.7847-2.5799 7.9081 12.305 5.3164 26.391 5.1113 39.634 6.4127 31.352 1.3479 63.213 1.8705 94.126-3.7667 3.632-0.91882 11.342-2.1703 9.7733-7.4325-4.8278-5.3106-13.324-4.8242-19.941-6.3325-18.669-2.428-37.69-2.9088-56.545-2.8541z" stroke-width=".961"/>
    <path d="m340.9 1277.4c-36.455 0.28259-65.703 3.9462-68.469 8.5h-0.21875v0.5625c-0.001892 0.035767 0 0.090332 0 0.125s-0.001892 0.089233 0 0.125v37.75c0.50742-5.0179 33.147-9.0625 73.281-9.0625 36.436 0 66.7 3.3463 72.344 7.7186v-35.031c0.621-0.48108 0.9375-0.99707 0.9375-1.5v-0.03125c-0.11197-5.0636-32.902-9.1562-73.281-9.1562-0.94806 0-1.9044-0.004517-2.8438 0-0.58221 0.002808-1.1713-0.004517-1.75 0zm-68.688 47.312v1.2188h0.78125c-0.46719-0.40002-0.73929-0.80383-0.78125-1.2188z"/>
    <path d="m340.9 1277.4c-36.455 0.28259-65.703 3.9462-68.469 8.5h-0.21875v0.5625c-0.001892 0.035767 0 0.090332 0 0.125s-0.001892 0.089233 0 0.125v37.75c0.50742-5.0179 33.147-9.0625 73.281-9.0625 36.436 0 66.7 3.3463 72.344 7.7186v-35.031c0.621-0.48108 0.9375-0.99707 0.9375-1.5v-0.03125c-0.11197-5.0636-32.902-9.1562-73.281-9.1562-0.94806 0-1.9044-0.004517-2.8438 0-0.58221 0.002808-1.1713-0.004517-1.75 0zm-68.688 47.312v1.2188h0.78125c-0.46719-0.40002-0.73929-0.80383-0.78125-1.2188z"/>
   </g>
   <path d="m476.1 794.96c-38.389 8.9844-67.284 20.762-64.888 26.533 0.006378 0.01532 0.008545 0.021729 0.01535 0.036926 4.6647-6.3862 32.069-16.677 66.659-24.593 38.263-8.7566 71.44-11.483 75.729-6.2344l0.2621 0.4857c0.66638-0.91229 0.90418-1.746 0.59869-2.4816l-0.3325-0.5101c-4.2894-5.2485-37.467-2.5223-75.729 6.2344-0.7721 0.1767-1.5496 0.35065-2.3143 0.5296z" stroke-opacity=".683" stroke-width=".653"/>
   <path d="m539.64 799.98a3.6791 4.2299 0 1 1 0 -0.011719"/>
   <path d="m463.64 813.9a3.6791 4.2299 0 1 1 0 -0.01178"/>
   <path d="m477.15 801.33c-38.389 8.9844-67.284 20.762-64.888 26.533 0.006378 0.01532 0.008545 0.021729 0.01535 0.036926 4.6647-6.3862 32.069-16.677 66.659-24.593 38.263-8.7566 71.44-11.483 75.729-6.2344l0.262 0.4857c0.66638-0.91229 0.90418-1.746 0.59876-2.4816l-0.3325-0.5101c-4.2894-5.2485-37.467-2.5223-75.729 6.2344-0.7721 0.1767-1.5496 0.35065-2.3143 0.5296z" stroke-opacity=".683" stroke-width=".653"/>
  </g>
  <path d="m374.42 642.82a120.9 34.827 0 1 1 0.039246 -0.096619" fill="#bfbfbf" stroke="#fff"/>
  <path d="m252.16 633.71c2.999-1.9993 2.3326-6.9977 5.3316-10.663 2.999-3.6655 6.6645-1.6661 6.6645-3.9987s-2.999-3.9987-6.6645-5.3316-4.9984-1.9993-7.9974 0-2.999 3.6655-3.9987 7.9974c-0.99968 4.3319-1.6661 6.3313 0 9.3303s3.6655 4.6652 6.6645 2.6658z" fill="#515a5d" fill-rule="evenodd"/>
  <g transform="matrix(1 0 0 .88717 -66.181 119.61)">
   <rect transform="matrix(.77768 .62865 -.54106 .84098 0 0)" x="700.44" y="427.09" width="4.4239" height="182.77" rx="1.6789" ry="1.6789" fill="url(#x)" opacity=".411"/>
   <rect x="310.57" y="575.18" width="9.3303" height="371.88" rx="3.416" ry="3.416" fill="url(#a)" opacity=".411"/>
   <rect transform="matrix(-.67338 .7393 .4281 .90373 0 0)" x="64.454" y="831.94" width="3.7618" height="170.08" rx="1.5623" ry="1.5623" fill="url(#y)" opacity=".411"/>
   <rect transform="matrix(-.9252 .37948 .22682 .97394 0 0)" x="-129.26" y="871.09" width="6.8586" height="137.39" rx="1.3122" ry="1.3122" fill="url(#z)" opacity=".411"/>
   <rect x="310.57" y="575.18" width="9.3303" height="371.88" rx="3.416" ry="3.416" fill="url(#a)" opacity=".411"/>
   <rect x="308.15" y="799.14" width="12.686" height="8.258" rx="1.8707" ry="1.8707" fill="#d1d1cf"/>
   <g fill="#29342c">
    <rect x="305.71" y="930.22" width="18.571" height="19.643" rx="5.4421" ry="5.4421"/>
    <rect transform="matrix(.93801 -.3466 .3342 .9425 0 0)" x="37.815" y="1019.4" width="10.478" height="13.642" rx="3.7795" ry="3.7795"/>
    <rect transform="matrix(.98869 -.14999 .13694 .99058 0 0)" x="207.66" y="964.56" width="10.478" height="13.642" rx="3.7795" ry="3.7795"/>
    <rect transform="matrix(-.85635 -.5164 -.50507 .86308 0 0)" x="-675.23" y="692.86" width="10.478" height="13.642" rx="3.7795" ry="3.7795"/>
   </g>
  </g>
  <g transform="matrix(-1.1345 .33004 .19102 1.9157 -618.14 -766.41)">
   <g transform="matrix(.97999 -.19904 .19904 .97999 -113.05 -396.27)">
    <path d="m-795.46 1191.8c-21.526 0.57507-43.645 0.32715-64.467 6.0651-3.9311 0.46619-7.1739 5.7847-2.5799 7.9081 12.305 5.3164 26.391 5.1113 39.634 6.4127 31.352 1.3479 63.213 1.8705 94.126-3.7667 3.6321-0.91882 11.342-2.1703 9.7733-7.4325-4.8279-5.3106-13.324-4.8242-19.941-6.3325-18.669-2.428-37.69-2.9088-56.545-2.8541z" fill="url(#ai)" stroke="#2a3039" stroke-width=".961"/>
    <path d="m-795.64 1156.3c-36.455 0.28259-65.703 3.9462-68.469 8.5h-0.21875v0.5625c-0.001892 0.035767 0 0.090332 0 0.125s-0.001892 0.089233 0 0.125v37.75c0.50738-5.0179 33.147-9.0625 73.281-9.0625 36.436 0 66.7 3.3463 72.344 7.7186v-35.031c0.62103-0.48108 0.9375-0.99707 0.9375-1.5v-0.03125c-0.112-5.0636-32.902-9.1562-73.281-9.1562-0.94806 0-1.9044-0.004517-2.8438 0-0.58221 0.002808-1.1713-0.004517-1.75 0zm-68.688 47.312v1.2188h0.78125c-0.46722-0.40002-0.73932-0.80383-0.78125-1.2188z" fill="#fff"/>
    <path d="m-795.64 1156.3c-36.455 0.28259-65.703 3.9462-68.469 8.5h-0.21875v0.5625c-0.001892 0.035767 0 0.090332 0 0.125s-0.001892 0.089233 0 0.125v37.75c0.50738-5.0179 33.147-9.0625 73.281-9.0625 36.436 0 66.7 3.3463 72.344 7.7186v-35.031c0.62103-0.48108 0.9375-0.99707 0.9375-1.5v-0.03125c-0.112-5.0636-32.902-9.1562-73.281-9.1562-0.94806 0-1.9044-0.004517-2.8438 0-0.58221 0.002808-1.1713-0.004517-1.75 0zm-68.688 47.312v1.2188h0.78125c-0.46722-0.40002-0.73932-0.80383-0.78125-1.2188z" fill="url(#ac)" stroke="#2a3039"/>
   </g>
   <g stroke="#f4f4f6">
    <path d="m-661.79 902.55c-38.389 8.9844-67.284 20.762-64.888 26.533 0.006409 0.01532 0.008545 0.021729 0.015381 0.036926 4.6647-6.3862 32.069-16.677 66.659-24.593 38.263-8.7566 71.44-11.483 75.729-6.2344l0.262 0.4857c0.66638-0.91229 0.90418-1.746 0.59876-2.4816l-0.3325-0.5101c-4.2894-5.2485-37.467-2.5223-75.729 6.2344-0.7721 0.1767-1.5496 0.35065-2.3143 0.5296z" fill="#615d58" stroke-opacity=".683" stroke-width=".653"/>
    <path d="m-598.25 907.58a3.6791 4.2299 0 1 1 0 -0.011719" fill="url(#aj)"/>
    <path d="m-674.26 921.5a3.6791 4.2299 0 1 1 0 -0.011719" fill="url(#ak)"/>
    <path d="m-660.74 908.93c-38.389 8.9844-67.284 20.762-64.888 26.533 0.006409 0.01532 0.008545 0.021729 0.01532 0.036926 4.6647-6.3862 32.069-16.677 66.659-24.593 38.263-8.7566 71.44-11.483 75.73-6.2344l0.262 0.4857c0.66638-0.91229 0.90418-1.746 0.59869-2.4816l-0.3324-0.5101c-4.2895-5.2485-37.467-2.5223-75.73 6.2344-0.7721 0.1767-1.5496 0.35065-2.3143 0.5296z" fill="#615d58" stroke-opacity=".683" stroke-width=".653"/>
   </g>
  </g>
  <g transform="matrix(1 0 0 .54643 -547.36 626.38)">
   <rect transform="matrix(.77768 .62865 -.54106 .84098 0 0)" x="1027.9" y="-85.284" width="4.4239" height="182.77" rx="1.6789" ry="1.6789" fill="url(#x)" opacity=".411"/>
   <rect x="842.43" y="350.13" width="9.3303" height="371.88" rx="3.416" ry="3.416" fill="url(#a)" opacity=".411"/>
   <rect transform="matrix(-.67338 .7393 .4281 .90373 0 0)" x="-559.31" y="1093.2" width="3.7618" height="170.08" rx="1.5623" ry="1.5623" fill="url(#y)" opacity=".411"/>
   <rect transform="matrix(-.9252 .37948 .22682 .97394 0 0)" x="-705.72" y="864.62" width="6.8586" height="137.39" rx="1.3122" ry="1.3122" fill="url(#z)" opacity=".411"/>
   <rect x="842.43" y="350.13" width="9.3303" height="371.88" rx="3.416" ry="3.416" fill="url(#a)" opacity=".411"/>
   <rect x="840.01" y="574.08" width="12.686" height="8.258" rx="1.8707" ry="1.8707" fill="#d1d1cf"/>
   <g fill="#29342c">
    <rect x="837.58" y="705.17" width="18.571" height="19.643" rx="5.4421" ry="5.4421"/>
    <rect transform="matrix(.93801 -.3466 .3342 .9425 0 0)" x="614.36" y="992.6" width="10.478" height="13.642" rx="3.7795" ry="3.7795"/>
    <rect transform="matrix(.98869 -.14999 .13694 .99058 0 0)" x="765.39" y="821.82" width="10.478" height="13.642" rx="3.7795" ry="3.7795"/>
    <rect transform="matrix(-.85635 -.5164 -.50507 .86308 0 0)" x="-1020.6" y="225.44" width="10.478" height="13.642" rx="3.7795" ry="3.7795"/>
   </g>
  </g>
  <g transform="matrix(.47185 0 0 .55223 663.42 254.78)" stroke-opacity=".683">
   <path d="m-704.58 1032.3l1.3438 83.985c-20.658 27.686-32.75 61.232-32.75 97.392 0 37.966 13.328 73.066 35.906 101.51 0 0-94.196 96.241-1.6384 94.275 92.453-1.9641 131.45-10.702 131.45-10.702 77.996-30.778 202.83-38.838 205.69-185.08v-0.48096c-0.27576-91.962-78.712-166.92-177.03-171.1l-0.0938-1.563-162.88-8.2362z" fill="url(#ae)" stroke="#f4f4f6" stroke-width=".617"/>
   <g stroke="#a7a29f">
    <rect transform="matrix(.99987 .016233 -.19413 .98098 0 0)" x="-391.48" y="1078" width="137.4" height="13.569" fill="url(#af)" stroke-width=".241"/>
    <path d="m-679.03 1033.5c-85.87-0.58789-169.25 60.794-189.6 144.87-17.316 66.457 5.9219 141.48 58.134 185.91 53.246 47.479 133.06 63.722 200.55 39.268 61.534-21.16 112.55-73.737 126.4-138.06 13.618-58.176-2.7936-122.56-43.547-166.15-38.005-42.267-94.833-67.294-151.94-65.844z" fill="#a39e9e" stroke-width=".629"/>
    <rect transform="matrix(.9968 -.07994 -.13051 .99145 0 0)" x="-330.86" y="1175" width="116.37" height="12.625" fill="url(#ag)" stroke-width=".214"/>
    <rect transform="matrix(.96943 -.24535 .068691 .99764 0 0)" x="-652.99" y="1203.7" width="137.4" height="13.569" fill="url(#ah)" stroke-width=".241"/>
   </g>
   <g stroke="#f4f4f6" stroke-width=".629">
    <path d="m-675.03 1041.5c-77.758-0.22656-153.74 51.045-179.12 125.03-19.896 55.852-9.8906 121.47 26.544 168.17 38.676 51.182 104 80.399 168.08 75.612 66.905-4.1726 131.08-44.535 160.35-105.28 24.918-50.593 24.674-113.19-2.5116-162.85-30.047-56.712-90.346-95.563-154.42-100.04-6.2894-0.5166-12.603-0.74939-18.913-0.64441z" fill="#353138"/>
    <path d="m-482.86 1228.1a185.71 178.57 0 1 1 -6.1e-4 -0.49524" fill="url(#al)"/>
   </g>
  </g>
  <g transform="matrix(.97999 -.19904 .19904 .97999 -113.05 -396.27)">
   <path d="m341.09 1312.8c-21.526 0.57507-43.645 0.32715-64.467 6.0651-3.9311 0.46619-7.1739 5.7847-2.5799 7.9081 12.305 5.3164 26.391 5.1113 39.634 6.4127 31.352 1.3479 63.213 1.8705 94.126-3.7667 3.632-0.91882 11.342-2.1703 9.7733-7.4325-4.8278-5.3106-13.324-4.8242-19.941-6.3325-18.669-2.428-37.69-2.9088-56.545-2.8541z" fill="url(#am)" stroke="#2a3039" stroke-width=".961"/>
   <path d="m340.9 1277.4c-36.455 0.28259-65.703 3.9462-68.469 8.5h-0.21875v0.5625c-0.001892 0.035767 0 0.090332 0 0.125s-0.001892 0.089233 0 0.125v37.75c0.50742-5.0179 33.147-9.0625 73.281-9.0625 36.436 0 66.7 3.3463 72.344 7.7186v-35.031c0.621-0.48108 0.9375-0.99707 0.9375-1.5v-0.03125c-0.11197-5.0636-32.902-9.1562-73.281-9.1562-0.94806 0-1.9044-0.004517-2.8438 0-0.58221 0.002808-1.1713-0.004517-1.75 0zm-68.688 47.312v1.2188h0.78125c-0.46719-0.40002-0.73929-0.80383-0.78125-1.2188z" fill="#fff"/>
   <path d="m340.9 1277.4c-36.455 0.28259-65.703 3.9462-68.469 8.5h-0.21875v0.5625c-0.001892 0.035767 0 0.090332 0 0.125s-0.001892 0.089233 0 0.125v37.75c0.50742-5.0179 33.147-9.0625 73.281-9.0625 36.436 0 66.7 3.3463 72.344 7.7186v-35.031c0.621-0.48108 0.9375-0.99707 0.9375-1.5v-0.03125c-0.11197-5.0636-32.902-9.1562-73.281-9.1562-0.94806 0-1.9044-0.004517-2.8438 0-0.58221 0.002808-1.1713-0.004517-1.75 0zm-68.688 47.312v1.2188h0.78125c-0.46719-0.40002-0.73929-0.80383-0.78125-1.2188z" fill="url(#ac)" stroke="#2a3039"/>
  </g>
  <g stroke="#f4f4f6">
   <path d="m476.1 794.96c-38.389 8.9844-67.284 20.762-64.888 26.533 0.006378 0.01532 0.008545 0.021729 0.01535 0.036926 4.6647-6.3862 32.069-16.677 66.659-24.593 38.263-8.7566 71.44-11.483 75.729-6.2344l0.2621 0.4857c0.66638-0.91229 0.90418-1.746 0.59869-2.4816l-0.3325-0.5101c-4.2894-5.2485-37.467-2.5223-75.729 6.2344-0.7721 0.1767-1.5496 0.35065-2.3143 0.5296z" fill="#615d58" stroke-opacity=".683" stroke-width=".653"/>
   <path d="m539.64 799.98a3.6791 4.2299 0 1 1 0 -0.011719" fill="url(#an)"/>
   <path d="m463.64 813.9a3.6791 4.2299 0 1 1 0 -0.01178" fill="url(#ao)"/>
   <path d="m477.15 801.33c-38.389 8.9844-67.284 20.762-64.888 26.533 0.006378 0.01532 0.008545 0.021729 0.01535 0.036926 4.6647-6.3862 32.069-16.677 66.659-24.593 38.263-8.7566 71.44-11.483 75.729-6.2344l0.262 0.4857c0.66638-0.91229 0.90418-1.746 0.59876-2.4816l-0.3325-0.5101c-4.2894-5.2485-37.467-2.5223-75.729 6.2344-0.7721 0.1767-1.5496 0.35065-2.3143 0.5296z" fill="#615d58" stroke-opacity=".683" stroke-width=".653"/>
  </g>
  <g transform="matrix(1 0 0 .54643 181.68 519)">
   <rect transform="matrix(.77768 .62865 -.54106 .84098 0 0)" x="700.44" y="427.09" width="4.4239" height="182.77" rx="1.6789" ry="1.6789" fill="url(#x)" opacity=".411"/>
   <rect x="310.57" y="575.18" width="9.3303" height="371.88" rx="3.416" ry="3.416" fill="url(#a)" opacity=".411"/>
   <rect transform="matrix(-.67338 .7393 .4281 .90373 0 0)" x="64.454" y="831.94" width="3.7618" height="170.08" rx="1.5623" ry="1.5623" fill="url(#y)" opacity=".411"/>
   <rect transform="matrix(-.9252 .37948 .22682 .97394 0 0)" x="-129.26" y="871.09" width="6.8586" height="137.39" rx="1.3122" ry="1.3122" fill="url(#z)" opacity=".411"/>
   <rect x="310.57" y="575.18" width="9.3303" height="371.88" rx="3.416" ry="3.416" fill="url(#a)" opacity=".411"/>
   <rect x="308.15" y="799.14" width="12.686" height="8.258" rx="1.8707" ry="1.8707" fill="#d1d1cf"/>
   <g fill="#29342c">
    <rect x="305.71" y="930.22" width="18.571" height="19.643" rx="5.4421" ry="5.4421"/>
    <rect transform="matrix(.93801 -.3466 .3342 .9425 0 0)" x="37.815" y="1019.4" width="10.478" height="13.642" rx="3.7795" ry="3.7795"/>
    <rect transform="matrix(.98869 -.14999 .13694 .99058 0 0)" x="207.66" y="964.56" width="10.478" height="13.642" rx="3.7795" ry="3.7795"/>
    <rect transform="matrix(-.85635 -.5164 -.50507 .86308 0 0)" x="-675.23" y="692.86" width="10.478" height="13.642" rx="3.7795" ry="3.7795"/>
   </g>
  </g>
 </g>
</svg>
