<?xml version="1.0" encoding="UTF-8"?>
<svg viewBox="0 0 323.07001 325.84" xmlns="http://www.w3.org/2000/svg" xmlns:xlink="http://www.w3.org/1999/xlink">
 <defs>
  <filter id="c">
   <feGaussianBlur stdDeviation="2.771"/>
  </filter>
  <filter id="t">
   <feGaussianBlur stdDeviation="2.6579"/>
  </filter>
  <filter id="f">
   <feGaussianBlur stdDeviation="3.6655"/>
  </filter>
  <filter id="s" x="-.17744" y="-.09066" width="1.3549" height="1.1813">
   <feGaussianBlur stdDeviation="3.8339"/>
  </filter>
  <filter id="r" x="-.25" y="-.25" width="1.5" height="1.5">
   <feGaussianBlur in="SourceAlpha" result="blur" stdDeviation="8"/>
   <feColorMatrix result="bluralpha" values="1 0 0 0 0 0 1 0 0 0 0 0 1 0 0 0 0 0 1 0"/>
   <feOffset dx="0" dy="0" in="bluralpha" result="offsetBlur"/>
   <feMerge>
    <feMergeNode in="offsetBlur"/>
    <feMergeNode in="SourceGraphic"/>
   </feMerge>
  </filter>
  <linearGradient id="a">
   <stop stop-color="#fff" offset="0"/>
   <stop stop-color="#fff" stop-opacity="0" offset="1"/>
  </linearGradient>
  <linearGradient id="d">
   <stop stop-color="#0050dc" offset="0"/>
   <stop stop-color="#0050dc" stop-opacity="0" offset="1"/>
  </linearGradient>
  <linearGradient id="e">
   <stop stop-color="#0050dc" offset="0"/>
   <stop stop-color="#005ce0" stop-opacity="0" offset="1"/>
  </linearGradient>
  <linearGradient id="q" x1="262.15" x2="221.43" y1="417.33" y2="374.63" gradientUnits="userSpaceOnUse">
   <stop stop-color="#0050dc" offset="0"/>
   <stop stop-color="#0010cc" stop-opacity="0" offset="1"/>
  </linearGradient>
  <linearGradient id="b" x1="139.91" x2="150.51" y1="484.66" y2="415.46" gradientUnits="userSpaceOnUse" xlink:href="#a"/>
  <linearGradient id="p" x1="214.29" x2="205" y1="423.83" y2="378.99" gradientUnits="userSpaceOnUse" xlink:href="#d"/>
  <linearGradient id="o" x1="123.95" x2="147.88" y1="405.04" y2="438.26" gradientUnits="userSpaceOnUse" xlink:href="#a"/>
  <linearGradient id="n" x1="266.81" x2="288.24" y1="244.47" y2="257.33" gradientUnits="userSpaceOnUse" xlink:href="#a"/>
  <linearGradient id="m" x1="153.54" x2="155.56" y1="396.77" y2="424.55" gradientUnits="userSpaceOnUse" xlink:href="#a"/>
  <linearGradient id="l" x1="248.24" x2="223.24" y1="355.9" y2="338.76" gradientUnits="userSpaceOnUse" xlink:href="#e"/>
  <linearGradient id="k" x1="248.5" x2="233.35" y1="379.6" y2="366.47" gradientUnits="userSpaceOnUse" xlink:href="#e"/>
  <linearGradient id="j" x1="361.09" x2="350.38" y1="312.33" y2="315.9" gradientUnits="userSpaceOnUse" xlink:href="#a"/>
  <linearGradient id="i" x1="356.81" x2="316.09" y1="278.76" y2="293.04" gradientUnits="userSpaceOnUse" xlink:href="#a"/>
  <linearGradient id="h" x1="344.46" x2="358.6" y1="333.13" y2="328.08" gradientUnits="userSpaceOnUse" xlink:href="#d"/>
  <linearGradient id="g" x1="302.88" x2="300.38" y1="204.83" y2="210.54" gradientUnits="userSpaceOnUse" xlink:href="#a"/>
 </defs>
 <g transform="translate(-66.037 -180.86)">
  <path d="m282.18 197.04-90.531 201.38c-11.561-4.9889-25.64-7.2721-40.625-5.875-36.488 3.4019-64.414 27.331-62.344 53.469s33.325 44.589 69.812 41.188c32.316-3.0129 57.886-22.164 61.875-44.656l67.688-153.78s52.829 6.4614 56.996 53.53-47.519 97.834-47.519 97.834 72.872-39.317 71.05-102.87-41.604-64.943-48.793-86.169-0.0887-39.08-0.0473-38.924z" fill="#0088e8" filter="url(#r)"/>
  <path transform="matrix(1 0 0 1.1471 -60.334 -14.54)" d="m269.31 397.36c0 20.119-26.39 36.429-58.943 36.429s-58.943-16.31-58.943-36.429 26.39-36.429 58.943-36.429 58.943 16.31 58.943 36.429z" fill="url(#q)" filter="url(#t)"/>
  <path transform="matrix(1 0 0 1.1471 -58.906 -15.969)" d="m269.31 397.36c0 20.119-26.39 36.429-58.943 36.429s-58.943-16.31-58.943-36.429 26.39-36.429 58.943-36.429 58.943 16.31 58.943 36.429z" fill="url(#p)"/>
  <path d="m156.46 393.66c-3.9765 0.013-8.0402 0.34816-12.156 1-32.928 5.2147-56.419 29.648-52.469 54.594s33.853 40.965 66.781 35.75 56.419-29.68 52.469-54.625c-3.4567-21.827-26.79-36.81-54.625-36.719zm-0.40625 3.8438c25.518-0.0833 46.894 13.646 50.062 33.656 3.6216 22.869-17.907 45.282-48.094 50.062s-57.597-9.8814-61.219-32.75 17.907-45.282 48.094-50.062c3.7733-0.59757 7.5108-0.89435 11.156-0.90625z" fill="url(#b)"/>
  <path d="m156.46 393.66c-3.9765 0.013-8.0402 0.34816-12.156 1-32.928 5.2147-56.419 29.648-52.469 54.594s33.853 40.965 66.781 35.75 56.419-29.68 52.469-54.625c-3.4567-21.827-26.79-36.81-54.625-36.719zm-0.40625 3.8438c25.518-0.0833 46.894 13.646 50.062 33.656 3.6216 22.869-17.907 45.282-48.094 50.062s-57.597-9.8814-61.219-32.75 17.907-45.282 48.094-50.062c3.7733-0.59757 7.5108-0.89435 11.156-0.90625z" fill="url(#b)" filter="url(#c)"/>
  <path d="m220.38 433.04 65.714-148.57-10-43.571-78.882 155.2s5.4039-0.41692 14.362 8.8735 8.806 28.066 8.806 28.066z" fill="url(#l)" filter="url(#f)"/>
  <path d="m156.46 393.66c-3.9765 0.013-8.0402 0.34816-12.156 1-32.928 5.2147-56.419 29.648-52.469 54.594s33.853 40.965 66.781 35.75 56.419-29.68 52.469-54.625c-3.4567-21.827-26.79-36.81-54.625-36.719zm-0.40625 3.8438c25.518-0.0833 46.894 13.646 50.062 33.656 3.6216 22.869-17.907 45.282-48.094 50.062s-57.597-9.8814-61.219-32.75 17.907-45.282 48.094-50.062c3.7733-0.59757 7.5108-0.89435 11.156-0.90625z" fill="url(#b)" filter="url(#c)"/>
  <path d="m156.46 393.66c-3.9765 0.013-8.0402 0.34816-12.156 1-32.928 5.2147-56.419 29.648-52.469 54.594s33.853 40.965 66.781 35.75 56.419-29.68 52.469-54.625c-3.4567-21.827-26.79-36.81-54.625-36.719zm-0.40625 3.8438c25.518-0.0833 46.894 13.646 50.062 33.656 3.6216 22.869-17.907 45.282-48.094 50.062s-57.597-9.8814-61.219-32.75 17.907-45.282 48.094-50.062c3.7733-0.59757 7.5108-0.89435 11.156-0.90625z" fill="url(#b)" filter="url(#c)"/>
  <path d="m138.57 398c-25.847 6.9238-44.734 24.433-46.906 44.188h41.562l24.656-13.938-19.312-30.25z" fill="url(#o)"/>
  <path d="m283.24 203.04 30 11.429s-27.143 30-61.429 86.429-43.571 111.43-43.571 111.43l-4.2857-37.143z" fill="url(#n)"/>
  <path d="m142.61 397.33 18.482 30 6.4286-2.8571-7.8571-29.286s-3.3036-0.44644-8.5714 0.17857-8.4821 1.9643-8.4821 1.9643z" fill="url(#m)"/>
  <path d="m220.38 433.04 65.714-148.57-10-43.571-78.882 155.2s5.4039-0.41692 14.362 8.8735 8.806 28.066 8.806 28.066z" fill="url(#k)" filter="url(#f)"/>
  <path d="m314.66 245.76s0 11.112 4.5457 16.668 32.83 25.254 40.406 44.447c10.036 25.426 5.5558 43.942 5.5558 43.942s-2.0203 19.193-11.112 33.84-24.244 30.81-24.244 30.81 26.264-29.294 29.8-58.084-9.0914-45.962-9.0914-45.962-13.637-16.668-35.355-31.315-15.152-40.911-15.152-40.911z" fill="url(#j)"/>
  <path d="m309.61 293.23s30.305 15.152 35.355 42.931-11.617 58.084-11.617 58.084 33.84-28.284 27.274-68.185-51.013-32.83-51.013-32.83z" fill="url(#h)" filter="url(#s)"/>
  <path d="m314.66 245.76s0 11.112 4.5457 16.668 32.83 25.254 40.406 44.447c10.036 25.426 5.5558 43.942 5.5558 43.942s-2.0203 19.193-11.112 33.84-24.244 30.81-24.244 30.81 26.264-29.294 29.8-58.084-9.0914-45.962-9.0914-45.962-13.637-16.668-35.355-31.315-15.152-40.911-15.152-40.911z" fill="url(#i)"/>
  <path d="m285.74 199.11 32.5 12.857-6.7857 0.35714-26.429-10.714z" fill="url(#g)" opacity=".15"/>
 </g>
</svg>
